<svg xmlns="http://www.w3.org/2000/svg" width="172" height="172" viewBox="0 0 172 172">
<rect width="172" height="172" fill="#17212B"></rect>
<g fill="none" stroke="#24333F" stroke-width="1.5" stroke-linecap="round" stroke-linejoin="round"><path d="M-6 0h12M0 -6v12" transform="translate(84.5 95.2) rotate(-23) scale(0.87)"></path><path d="M-7 -5h14v10h-14z M-7 -4l7 5 7-5" transform="translate(21.9 143.6) rotate(5) scale(0.96)"></path><path d="M0 -7l4 9-4-3-4 3z" transform="translate(53.2 128.8) rotate(9) scale(0.79)"></path><path d="M0 -6a6 6 0 100 12 6 6 0 100-12z M0 -3v4l3 2" transform="translate(85.8 45.7) rotate(10) scale(0.83)"></path><path d="M0 6c-5-4-7-7-7-9a4 4 0 017-2 4 4 0 017 2c0 2-2 5-7 9z" transform="translate(36.8 17.6) rotate(26) scale(1.23)"></path><path d="M-6 -6h12v12h-12z M-6 0h12 M0 -6v12" transform="translate(28.4 77.5) rotate(27) scale(0.84)"></path><path d="M-7 -2a7 7 0 1114 0c0 4-7 8-7 8s-7-4-7-8z" transform="translate(63.5 63.2) rotate(-25) scale(1.21)"></path><path d="M0 -8l2 5 5 1-4 4 1 5-4-3-4 3 1-5-4-4 5-1z" transform="translate(101.7 71.1) rotate(16) scale(1.08)"></path><path d="M-5 -7h10v11l-5 4z" transform="translate(113.5 108.3) rotate(27) scale(0.91)"></path><path d="M-6 -6l12 6-12 6z" transform="translate(122.9 30.0) rotate(-14) scale(1.13)"></path><path d="M-6 4c3-6 9-6 12 0" transform="translate(140.5 157.2) rotate(26) scale(1.18)"></path><path d="M-5 -6h10v12h-10z M-2 -3h4" transform="translate(94.3 13.7) rotate(-11) scale(0.93)"></path><path d="M0 -7v14M-5 2l5 5 5-5" transform="translate(79.4 142.6) rotate(5) scale(0.98)"></path><path d="M-6 -3a6 6 0 1112 0v7h-12z" transform="translate(146.2 50.2) rotate(-29) scale(0.83)"></path><path d="M-7 3l5-9 4 5 3-3 2 7z" transform="translate(110.4 142.2) rotate(-16) scale(1.17)"></path><path d="M-4 -6a4 4 0 108 0 4 4 0 10-8 0z M-5 7c1-4 9-4 10 0" transform="translate(147.8 113.0) rotate(-2) scale(1.23)"></path><path d="M-6 0h12M0 -6v12" transform="translate(121.3 84.8) rotate(-16) scale(1.06)"></path><path d="M-7 -5h14v10h-14z M-7 -4l7 5 7-5" transform="translate(52.0 99.0) rotate(-22) scale(1.10)"></path><path d="M0 -7l4 9-4-3-4 3z" transform="translate(113.6 117.5) rotate(-29) scale(0.87)"></path><path d="M0 -6a6 6 0 100 12 6 6 0 100-12z M0 -3v4l3 2" transform="translate(18.6 49.0) rotate(0) scale(1.02)"></path><path d="M0 6c-5-4-7-7-7-9a4 4 0 017-2 4 4 0 017 2c0 2-2 5-7 9z" transform="translate(67.8 23.7) rotate(1) scale(0.87)"></path><path d="M-6 -6h12v12h-12z M-6 0h12 M0 -6v12" transform="translate(54.8 161.8) rotate(-29) scale(0.76)"></path><path d="M-7 -2a7 7 0 1114 0c0 4-7 8-7 8s-7-4-7-8z" transform="translate(154.4 10.3) rotate(-11) scale(0.91)"></path><path d="M0 -8l2 5 5 1-4 4 1 5-4-3-4 3 1-5-4-4 5-1z" transform="translate(24.6 106.8) rotate(29) scale(1.24)"></path><path d="M-5 -7h10v11l-5 4z" transform="translate(13.8 62.3) rotate(5) scale(0.92)"></path><path d="M-6 -6l12 6-12 6z" transform="translate(51.6 160.3) rotate(-1) scale(1.24)"></path></g></svg>